<?xml version="1.0" standalone="no"?>
<!DOCTYPE svg PUBLIC "-//W3C//DTD SVG 20010904//EN"
 "http://www.w3.org/TR/2001/REC-SVG-20010904/DTD/svg10.dtd">
<svg version="1.0" xmlns="http://www.w3.org/2000/svg"
 width="6068.000000pt" height="3656.000000pt" viewBox="0 0 6068.000000 3656.000000"
 preserveAspectRatio="xMidYMid meet">

<g transform="translate(0.000000,3656.000000) scale(0.100000,-0.100000)"
fill="#000000" stroke="none">
<path d="M30755 36545 c-318 -32 -607 -97 -937 -210 -117 -40 -427 -148 -688
-240 -2735 -961 -5811 -1966 -8825 -2884 -1492 -454 -2807 -842 -5240 -1546
-2814 -815 -3641 -1062 -4670 -1397 -2545 -827 -3717 -1481 -4213 -2348 -140
-246 -199 -427 -252 -773 -85 -562 -243 -1837 -430 -3487 -39 -344 -79 -693
-89 -775 l-17 -150 -365 -500 c-201 -275 -601 -819 -888 -1209 -287 -389 -520
-711 -517 -714 3 -2 125 10 271 28 147 18 269 30 272 27 5 -6 -161 -232 -791
-1072 -927 -1237 -1751 -2316 -2875 -3765 -271 -349 -488 -636 -483 -638 4 -1
476 56 1048 128 933 116 2356 289 2652 322 62 6 116 15 121 18 4 3 155 204
335 446 l327 442 57 6 c31 4 74 9 95 12 31 5 37 3 37 -13 0 -10 -45 -444 -99
-963 -55 -520 -105 -1014 -112 -1099 -15 -201 -6 -767 14 -951 102 -888 368
-1661 826 -2398 350 -563 853 -1108 1396 -1513 125 -93 5696 -3832 5935 -3983
670 -424 1463 -706 2260 -805 258 -32 413 -41 700 -41 146 0 327 5 401 10
1284 99 2478 620 3409 1488 62 59 467 476 898 927 431 451 818 848 859 882
169 138 357 204 583 204 246 0 454 -80 627 -241 26 -25 551 -605 1167 -1290
4671 -5192 4791 -5325 4922 -5442 655 -592 1421 -932 2299 -1019 154 -15 556
-15 710 0 878 87 1644 427 2299 1019 131 117 251 250 4922 5442 616 685 1141
1265 1167 1290 172 160 384 242 627 242 225 0 418 -69 588 -210 45 -37 827
-848 1740 -1802 912 -954 1696 -1771 1743 -1815 287 -274 663 -477 1061 -575
208 -51 322 -64 563 -64 249 -1 374 14 591 69 214 55 445 149 624 257 134 80
8001 5358 8135 5457 453 338 879 773 1212 1238 485 679 819 1483 958 2306 57
340 75 568 75 936 0 320 -3 354 -72 1013 -28 274 -49 500 -47 502 2 3 38 1 79
-4 41 -5 203 -19 360 -31 262 -19 307 -20 550 -9 238 11 291 17 519 57 l254
44 217 89 c211 86 224 93 411 221 l194 132 138 195 137 195 70 216 70 216 0
260 0 260 -64 250 c-60 235 -70 265 -177 510 -111 256 -117 266 -348 635 -129
206 -246 389 -260 406 -15 17 -145 161 -291 320 -264 289 -265 289 -565 534
-242 197 -335 266 -480 356 l-180 111 -52 224 c-211 899 -669 2761 -692 2814
-7 16 -84 44 -392 139 -211 65 -388 122 -392 126 -5 4 -27 160 -48 346 -243
2113 -392 3258 -454 3504 -138 543 -522 1020 -1165 1445 -721 478 -1820 933
-3665 1519 -914 290 -1716 528 -4250 1261 -2430 703 -3729 1087 -5240 1546
-3001 913 -6090 1923 -8825 2884 -927 326 -1052 364 -1360 415 -304 50 -722
64 -1015 35z m-2656 -2919 c-2 -2 -3869 -1414 -8594 -3137 -4724 -1723 -8592
-3136 -8595 -3140 -3 -4 -288 -738 -634 -1631 -346 -892 -630 -1624 -630
-1624 -2 -4 -889 -94 -892 -91 -2 1 222 671 496 1487 275 817 500 1488 500
1492 0 5 -350 8 -777 9 l-778 0 100 51 c234 119 732 323 1430 585 2835 1065
8797 3021 16950 5561 583 182 1139 355 1235 386 168 52 198 61 189 52z m6936
-266 c7023 -2183 12724 -4032 15970 -5178 1449 -512 2506 -918 2914 -1118
l146 -72 -777 -1 c-428 -1 -778 -4 -778 -9 0 -4 229 -689 510 -1522 280 -833
510 -1516 510 -1516 0 -1 -23 -4 -50 -8 -28 -4 -137 -37 -243 -73 -165 -57
-210 -77 -320 -145 -109 -66 -129 -75 -134 -60 -25 69 -1433 3695 -1435 3697
-2 1 -3868 1412 -8593 3134 -4724 1723 -8592 3135 -8595 3138 -7 7 -82 30 875
-267z m-7640 -3042 c-956 -1101 -1747 -2013 -1759 -2025 l-21 -23 -525 865
c-394 649 -529 864 -540 859 -8 -3 -2481 -930 -5495 -2061 -3014 -1130 -5495
-2062 -5514 -2071 l-34 -17 -213 -709 c-117 -389 -215 -710 -217 -713 -3 -2
-193 -21 -422 -41 l-418 -37 -37 -60 c-840 -1349 -944 -1514 -1606 -2557 -233
-366 -424 -671 -424 -677 0 -6 18 -8 48 -5 79 10 747 71 749 69 2 -1 -324
-882 -724 -1958 -400 -1076 -728 -1956 -729 -1954 -3 2 6 82 72 687 78 723
179 1562 269 2237 l45 331 1309 3038 1309 3038 6098 2403 c3355 1322 6126
2413 6160 2426 l61 24 344 -733 c189 -403 346 -733 349 -733 3 0 813 541 1800
1203 987 662 1796 1202 1798 1201 2 -2 -778 -905 -1733 -2007z m7913 553 c783
-524 1425 -951 1426 -949 1 1 157 332 346 734 l343 731 61 -24 c34 -13 2805
-1104 6160 -2426 l6098 -2403 739 -1714 c406 -942 737 -1715 735 -1717 -2 -2
-50 34 -108 81 -527 424 -1141 795 -1747 1057 -73 32 -137 61 -141 66 -4 4
-110 350 -236 768 -125 418 -232 765 -238 772 -6 6 -2488 941 -5516 2077
-3028 1135 -5512 2067 -5520 2070 -11 5 -147 -211 -540 -859 l-525 -865 -21
23 c-47 48 -3494 4027 -3494 4033 0 3 170 -109 378 -249 207 -139 1017 -682
1800 -1206z m-5563 -654 l362 -642 -240 -82 c-132 -45 -242 -84 -244 -87 -3
-2 149 -314 336 -692 188 -378 341 -691 341 -696 0 -4 -88 -51 -195 -102 -107
-52 -195 -98 -195 -101 0 -4 106 -214 235 -467 130 -253 235 -462 233 -463 -2
-1 -241 206 -533 462 -291 256 -545 477 -564 493 l-34 29 105 52 105 52 -369
760 c-203 418 -365 763 -361 767 4 4 84 41 177 81 92 41 170 80 173 86 3 7
-76 212 -176 456 -100 243 -181 447 -181 452 1 11 652 296 659 289 3 -3 167
-293 366 -647z m3528 483 c147 -63 267 -119 267 -125 0 -5 -81 -209 -181 -452
-99 -244 -179 -448 -177 -454 2 -7 82 -47 178 -89 96 -42 175 -81 176 -86 2
-5 -163 -349 -365 -764 l-367 -755 104 -53 105 -54 -34 -28 c-19 -16 -272
-237 -564 -493 -291 -256 -531 -463 -533 -462 -2 1 103 210 233 463 129 253
235 463 235 467 0 3 -88 49 -195 101 -107 51 -195 98 -195 102 0 5 153 318
341 696 187 378 339 690 336 692 -2 3 -112 42 -244 87 l-240 82 364 647 364
647 63 -27 c34 -15 182 -79 329 -142z m2647 -5970 c435 -40 943 -180 1389
-384 731 -333 1534 -1037 2004 -1756 204 -313 414 -742 536 -1095 199 -574
249 -1123 155 -1692 -52 -319 -116 -527 -230 -755 -219 -439 -547 -814 -954
-1090 -362 -246 -807 -452 -1195 -553 -616 -161 -1377 -175 -2090 -40 -650
123 -1308 402 -1839 778 -517 366 -965 868 -1212 1354 -200 396 -335 843 -385
1278 -19 162 -16 568 5 745 83 701 359 1348 824 1930 103 129 332 361 472 479
549 460 1199 736 1885 800 132 12 502 13 635 1z m-4812 -3667 l-3 -3618 -1194
-8 c-656 -4 -1195 -6 -1196 -5 -2 2 33 824 76 1828 43 1004 78 1839 78 1855
l0 30 -22 -26 c-12 -14 -150 -178 -307 -365 -157 -186 -474 -559 -705 -828
-231 -269 -430 -502 -443 -517 -13 -16 -28 -29 -33 -29 -15 0 -642 846 -1074
1448 -103 145 -191 259 -195 255 -4 -4 -84 -822 -179 -1818 -94 -995 -174
-1826 -177 -1846 l-5 -37 -187 -6 c-103 -3 -455 -13 -782 -22 -327 -8 -779
-21 -1005 -28 -225 -7 -412 -12 -413 -10 -4 2 694 5089 702 5128 4 17 -1 18
-92 12 -53 -3 -186 -8 -294 -12 l-197 -6 86 203 c151 363 497 1205 642 1564
78 192 146 354 151 359 9 9 225 17 1080 40 311 9 663 18 782 22 l216 6 263
-393 c360 -541 897 -1320 917 -1333 11 -7 875 1059 1306 1611 l119 152 131 4
c72 1 542 4 1044 5 l912 2 -2 -3617z m11232 3461 c764 -41 1600 -91 1605 -96
13 -13 224 -2633 213 -2643 -2 -3 -248 10 -546 27 -298 17 -545 29 -548 26 -2
-3 239 -1070 537 -2372 298 -1301 539 -2369 536 -2373 -4 -3 -233 6 -509 20
-277 15 -800 41 -1163 58 -363 17 -663 34 -666 38 -4 3 -206 1067 -450 2364
-244 1297 -446 2362 -449 2368 -4 5 -216 18 -511 30 -277 11 -524 23 -548 25
l-44 6 6 186 c4 103 7 634 7 1180 l0 992 73 0 c96 0 1372 -57 1694 -76 l113
-7 -7 143 -6 143 94 -7 c52 -3 308 -18 569 -32z m-23048 -199 c-10 -62 -1733
-7260 -1740 -7265 -4 -4 -252 -21 -552 -39 -300 -17 -832 -50 -1183 -72 -351
-23 -640 -39 -643 -37 -3 4 949 3423 1031 3701 14 48 8 43 -363 -320 -811
-794 -1541 -1498 -1554 -1498 -12 0 -401 756 -653 1268 -104 212 -192 386
-195 386 -3 0 -283 -842 -624 -1872 -340 -1029 -622 -1876 -626 -1880 -4 -5
-301 -33 -661 -62 -360 -30 -892 -75 -1182 -101 -291 -25 -531 -43 -534 -40
-3 3 430 1176 961 2607 532 1431 965 2603 964 2604 -2 1 -128 -10 -280 -23
-153 -14 -280 -23 -284 -20 -3 3 97 167 222 364 321 507 676 1073 919 1464
114 184 213 341 221 349 15 16 109 25 1259 120 396 33 743 63 771 65 l50 6 84
-193 c129 -298 345 -778 517 -1150 l156 -338 189 188 c104 103 437 440 741
748 303 308 634 644 735 747 l185 187 561 36 c841 54 1479 93 1496 91 9 -1 14
-10 12 -21z m28558 -205 c745 -68 1627 -424 2470 -997 409 -279 751 -564 1126
-938 575 -574 1033 -1180 1328 -1759 107 -209 171 -363 256 -614 177 -518 249
-986 209 -1350 -34 -313 -173 -705 -341 -957 -62 -93 -249 -290 -363 -382
-176 -142 -399 -275 -583 -348 -178 -70 -553 -155 -847 -191 -177 -22 -677
-30 -887 -15 -705 52 -1470 282 -2213 665 -836 433 -1531 1001 -2090 1711
-417 530 -707 1093 -840 1628 -132 537 -166 1057 -94 1480 61 356 221 762 422
1065 198 300 569 612 935 788 200 96 511 178 767 203 61 6 124 13 140 15 72 8
500 5 605 -4z m-38005 -552 c-9 -38 -130 -794 -200 -1253 -278 -1807 -550
-3986 -700 -5590 -14 -154 -28 -289 -30 -300 -4 -19 -30 -22 -462 -64 -252
-24 -786 -76 -1188 -116 -401 -40 -731 -72 -733 -70 -2 2 20 169 48 371 28
203 54 388 57 412 5 35 3 42 -11 42 -96 0 -2401 -261 -2413 -273 -11 -11 -559
-750 -625 -842 l-29 -41 -362 -42 c-199 -24 -711 -86 -1137 -138 -426 -52
-800 -97 -830 -101 -53 -6 -54 -5 -39 13 52 61 1028 1332 1539 2004 1012 1330
2579 3434 2567 3446 -3 3 -125 -9 -271 -27 -146 -18 -269 -30 -272 -27 -3 3
156 226 354 494 335 458 1042 1428 1198 1646 38 54 74 97 80 98 7 0 240 27
519 60 844 99 2828 317 2908 319 34 1 37 -1 32 -21z m45928 -214 c1138 -351
1341 -414 1351 -424 17 -17 554 -2205 544 -2216 -3 -2 -116 43 -251 101 -135
58 -248 105 -251 105 -4 0 -122 45 -264 101 -396 156 -801 284 -1042 330 -76
15 -156 22 -235 23 -110 1 -125 -2 -177 -26 -74 -34 -93 -63 -85 -129 6 -46
13 -58 93 -145 82 -88 97 -100 238 -178 158 -88 373 -179 786 -331 666 -245
1176 -483 1609 -752 247 -153 300 -191 548 -393 265 -217 281 -231 521 -492
l247 -270 226 -356 c219 -348 228 -363 326 -592 87 -202 108 -263 152 -436
l51 -201 0 -164 0 -164 -50 -151 c-47 -141 -56 -159 -136 -273 -85 -121 -87
-122 -219 -213 -110 -75 -161 -102 -298 -158 -151 -62 -181 -71 -364 -104
-291 -52 -586 -66 -924 -42 -471 33 -704 66 -1132 158 -395 84 -756 193 -1242
373 -213 79 -676 261 -851 335 l-52 22 -7 56 c-16 131 -338 2050 -351 2095 -3
9 -1 17 5 17 6 0 75 -27 153 -61 402 -172 1047 -419 1428 -546 240 -80 578
-170 712 -190 98 -15 131 -15 208 -6 52 7 105 20 123 30 70 41 96 124 60 189
-10 18 -52 69 -93 116 -70 78 -87 90 -245 180 -192 109 -398 198 -1145 493
-641 253 -977 412 -1352 639 -249 150 -302 187 -537 375 l-261 209 -223 256
-223 257 -166 307 c-150 277 -173 326 -233 497 -89 256 -118 427 -115 690 1
171 3 186 36 315 49 184 125 320 266 469 85 90 116 115 221 178 256 153 540
215 931 201 109 -4 242 -14 295 -23 263 -45 491 -96 684 -152 15 -5 17 -1 13
18 -9 39 -46 257 -46 269 0 5 2 10 5 10 3 0 335 -102 738 -226z m-2733 -8377
l0 -1892 -2922 -2575 c-1606 -1416 -3229 -2846 -3605 -3178 -553 -487 -680
-595 -668 -566 362 867 3919 9321 3924 9325 3 3 69 -2 145 -12 436 -56 988
-50 1426 16 264 39 614 125 784 192 282 110 597 305 835 517 41 36 76 66 78
66 1 0 3 -852 3 -1893z m1934 1123 l286 -115 0 -195 c0 -107 7 -1042 16 -2078
14 -1608 15 -1885 3 -1897 -11 -10 -7254 -5079 -7564 -5293 -44 -30 -73 -48
-65 -40 8 8 1604 1252 3545 2763 1942 1511 3535 2753 3541 2759 9 8 3 489 -21
1916 -19 1048 -35 1994 -37 2103 -2 108 0 196 4 195 3 -2 135 -55 292 -118z
m-40532 -4640 c1093 -2599 1987 -4726 1988 -4727 0 -2 -308 268 -683 600 -376
331 -1999 1761 -3605 3177 l-2922 2575 0 1416 0 1416 78 6 c42 3 361 31 707
62 347 30 979 84 1405 120 426 35 820 68 875 73 55 6 116 9 135 8 l35 -1 1987
-4725z m-6897 2425 c-25 -1401 -30 -1873 -21 -1881 6 -6 1600 -1248 3541
-2759 1942 -1511 3537 -2755 3545 -2763 8 -8 -21 10 -65 40 -309 214 -7553
5283 -7564 5293 -12 12 -11 298 3 1947 10 1063 19 1934 20 1935 1 2 570 60
572 59 1 -1 -13 -842 -31 -1871z m20817 1083 c119 -79 235 -154 258 -168 69
-41 171 -156 218 -248 62 -119 90 -241 102 -442 13 -215 12 -961 0 -1115 -27
-330 -116 -558 -283 -724 -95 -94 -501 -382 -622 -441 -134 -65 -168 -73 -232
-57 -216 56 -573 458 -672 754 -20 61 -21 81 -21 740 0 696 4 786 40 921 40
146 102 243 254 401 132 135 515 465 591 509 11 6 50 12 86 12 l65 0 216 -142z
m9538 112 c21 -16 125 -86 231 -154 234 -150 297 -199 355 -278 86 -117 133
-247 155 -431 16 -136 17 -1166 1 -1292 -26 -202 -79 -370 -158 -505 -74 -126
-153 -194 -571 -488 -100 -71 -201 -123 -300 -156 -43 -14 -59 -15 -95 -6
-207 55 -522 390 -662 705 l-31 70 -3 720 c-3 785 0 840 53 982 46 121 101
199 239 341 156 160 543 494 596 515 8 3 46 6 84 6 61 1 72 -2 106 -29z
m-3882 -2 l152 -21 0 -1489 0 -1488 -332 -163 -333 -163 -3 548 -2 548 -150 0
-150 0 0 -418 0 -419 -24 -22 c-51 -48 -488 -211 -565 -211 l-28 0 -6 473
c-14 968 -9 1242 28 1557 53 443 183 761 399 976 137 137 290 224 471 269 194
48 328 54 543 23z m1313 -10 c36 -20 68 -57 247 -284 86 -110 137 -157 200
-187 26 -12 48 -22 50 -23 8 -5 -63 -195 -95 -257 -41 -78 -118 -167 -175
-203 -91 -58 -225 -67 -326 -24 -62 27 -155 121 -234 237 l-52 78 -13 -90
c-10 -69 -13 -253 -11 -780 l3 -690 29 -58 c82 -161 296 -306 453 -307 l51 0
56 85 c31 46 73 98 94 115 31 26 113 60 144 60 4 0 8 -30 8 -67 -1 -67 -4 -75
-203 -508 l-202 -440 -95 -3 c-186 -6 -386 34 -525 106 -48 25 -97 63 -156
122 -73 72 -93 100 -132 180 -128 264 -151 471 -152 1340 0 593 0 595 23 680
102 371 386 734 683 874 143 68 260 84 330 44z m-5581 -210 l1 -223 28 33 c16
18 57 86 91 150 76 141 134 228 160 242 28 15 103 12 157 -6 190 -65 360 -283
430 -553 31 -123 40 -314 24 -576 -26 -456 -126 -655 -329 -655 l-64 0 7 -82
c13 -159 65 -356 166 -635 80 -221 148 -380 295 -690 68 -144 124 -274 124
-288 l0 -25 -286 0 -286 0 -47 34 c-133 99 -160 146 -336 591 -138 349 -174
425 -198 425 -4 0 -7 -128 -7 -284 l0 -284 -40 -32 c-77 -61 -433 -219 -529
-235 l-44 -7 6 748 c6 700 30 2009 41 2189 9 147 8 146 180 232 209 105 336
151 419 152 l37 1 0 -222z m-3145 182 c67 -32 161 -130 212 -221 45 -78 100
-234 129 -359 22 -98 32 -673 14 -859 -32 -350 -143 -544 -372 -655 -51 -25
-127 -54 -168 -66 -94 -25 -277 -50 -376 -50 l-74 0 0 -443 0 -443 -102 -38
c-244 -91 -490 -176 -510 -176 -12 0 -30 7 -40 17 -24 21 -24 111 2 1073 10
410 24 972 30 1250 12 601 16 663 38 683 22 19 98 57 192 95 126 52 415 152
438 152 21 0 22 -3 24 -201 l3 -201 158 205 c86 113 172 219 190 237 30 30 35
32 97 28 42 -2 82 -12 115 -28z m-2758 -11 c54 -26 112 -92 215 -242 98 -145
134 -187 160 -187 25 0 57 25 273 214 l170 148 80 -4 c65 -3 91 -10 134 -33
133 -73 228 -258 275 -535 33 -199 38 -278 43 -725 6 -541 -20 -1592 -40
-1611 -7 -6 -123 -57 -258 -112 -233 -97 -250 -102 -318 -102 l-71 0 0 1193
c0 806 -4 1204 -11 1230 -5 21 -23 52 -39 70 -27 31 -32 32 -119 35 l-91 4 6
-114 c3 -62 9 -174 15 -249 5 -74 9 -242 9 -373 0 -248 -26 -1346 -34 -1452
-11 -139 -82 -239 -201 -283 -50 -19 -275 -60 -422 -78 l-43 -5 0 1204 c0
1315 2 1268 -57 1346 -33 44 -94 81 -148 91 l-45 8 -2 -1231 -3 -1231 -305
-121 c-168 -67 -306 -121 -306 -120 -1 1 -5 672 -9 1492 l-7 1490 59 27 c32
14 132 55 223 90 91 36 200 81 244 101 43 20 82 36 87 36 5 0 9 -56 9 -125 0
-106 3 -127 16 -132 28 -10 76 23 199 137 123 115 202 170 244 170 14 0 44 -9
68 -21z m8453 14 c0 -5 45 -264 100 -578 55 -313 100 -579 100 -592 0 -16 -6
-23 -19 -23 -35 0 -84 46 -170 160 -47 63 -102 125 -121 138 -32 22 -42 24
-120 19 -47 -3 -98 -11 -113 -18 l-27 -12 -2 -1066 -3 -1066 -145 -67 c-225
-104 -457 -198 -490 -198 l-30 0 0 1190 0 1190 -26 6 c-14 4 -48 4 -76 2 -55
-6 -59 -9 -239 -206 -42 -46 -64 -62 -93 -67 -21 -4 -42 -3 -47 2 -7 7 2 52
25 129 53 178 79 298 140 639 31 171 59 325 62 344 3 18 9 44 14 57 l10 24
635 0 c349 0 635 -3 635 -7z m7695 -47 c98 -45 224 -185 318 -351 l45 -80 16
-170 c35 -368 40 -473 40 -825 0 -431 -22 -1356 -34 -1453 -16 -128 -80 -208
-193 -242 -29 -9 -115 -22 -192 -30 -77 -8 -157 -17 -177 -21 l-38 -7 0 1200
0 1199 -26 52 c-46 94 -174 177 -288 189 l-56 6 0 -1226 0 -1225 -305 -122
c-168 -67 -308 -120 -311 -117 -4 4 -22 2149 -24 2823 l0 152 83 35 c45 19
143 59 217 87 74 29 175 70 223 92 48 21 90 38 92 38 3 0 5 -56 5 -125 0 -124
0 -125 25 -131 28 -7 54 7 200 112 171 122 246 163 305 163 14 1 48 -10 75
-23z m-17415 -838 c0 -893 -13 -1788 -30 -2028 -7 -115 -13 -149 -28 -170 -23
-31 -167 -94 -355 -155 -117 -38 -151 -45 -218 -45 l-79 0 0 50 c0 133 81
2947 85 2958 16 44 492 224 613 231 9 1 12 -174 12 -841z m14070 -40 c0 -906
-13 -1773 -29 -2002 -8 -102 -14 -135 -29 -155 -23 -32 -163 -93 -354 -156
-116 -38 -149 -45 -217 -45 -77 0 -81 1 -81 23 -1 86 82 2975 85 2984 15 44
491 224 613 232 9 1 12 -182 12 -881z m-7581 -6938 l1143 -1150 -997 0 c-794
0 -996 -3 -992 -12 2 -7 579 -951 1282 -2098 702 -1147 1279 -2089 1283 -2095
3 -5 -66 60 -154 145 -87 86 -1247 1217 -2576 2514 -1330 1296 -2418 2360
-2418 2364 1 4 259 155 574 336 316 181 572 334 570 340 -11 33 -804 2750
-804 2755 1 3 438 -434 973 -971 535 -538 1487 -1495 2116 -2128z m6811 1724
c-220 -753 -402 -1374 -404 -1380 -2 -6 254 -159 570 -340 315 -181 573 -332
574 -336 0 -3 -1088 -1068 -2417 -2364 -1330 -1297 -2490 -2428 -2577 -2514
-88 -85 -157 -150 -154 -145 4 6 581 948 1283 2095 703 1147 1280 2091 1282
2097 4 10 -201 13 -990 15 l-995 3 2111 2122 c1161 1168 2112 2121 2114 2119
2 -1 -177 -619 -397 -1372z"/>
<path d="M35660 22644 c-578 -73 -1058 -438 -1265 -962 -187 -475 -121 -1013
180 -1462 307 -457 844 -778 1425 -850 125 -15 386 -12 509 5 640 94 1113 496
1258 1071 26 102 28 123 27 319 0 236 -13 323 -80 522 -218 651 -824 1185
-1508 1329 -100 21 -154 26 -316 29 -107 2 -211 1 -230 -1z"/>
<path d="M32610 22406 c-76 -168 -169 -500 -210 -746 -29 -183 -25 -190 25
-41 90 268 291 679 396 813 l31 38 -107 0 -106 0 -29 -64z"/>
<path d="M32965 22390 c-199 -340 -377 -1001 -374 -1395 l0 -100 25 95 c103
390 384 1092 564 1408 l41 72 -105 0 -104 0 -47 -80z"/>
<path d="M33356 22427 c-111 -190 -245 -573 -310 -890 -36 -171 -32 -191 13
-67 109 305 335 741 479 923 29 37 52 69 52 72 0 3 -47 5 -105 5 l-104 0 -25
-43z"/>
<path d="M33725 22419 c-151 -228 -329 -697 -395 -1035 -28 -149 -24 -165 14
-49 116 356 370 834 562 1061 l55 64 -104 0 -104 0 -28 -41z"/>
<path d="M33301 21214 c0 -11 3 -14 6 -6 3 7 2 16 -1 19 -3 4 -6 -2 -5 -13z"/>
<path d="M39496 20805 c-56 -435 -252 -1101 -424 -1441 l-31 -61 76 -7 c150
-12 137 -18 189 87 89 177 161 436 200 722 20 146 25 619 7 710 l-10 50 -7
-60z"/>
<path d="M38800 20478 c-7 -40 -30 -133 -51 -206 -91 -312 -237 -614 -398
-828 -36 -48 -72 -96 -80 -106 -13 -18 -10 -19 100 -16 l114 3 66 130 c145
287 243 656 265 993 4 56 5 102 2 102 -3 0 -11 -33 -18 -72z"/>
<path d="M39110 20363 c-19 -100 -78 -299 -121 -410 -84 -220 -248 -531 -322
-610 -11 -13 -19 -25 -16 -27 2 -2 53 -6 113 -7 l109 -3 33 65 c78 156 161
453 193 698 19 145 35 351 27 351 -3 0 -10 -26 -16 -57z"/>
<path d="M39842 20281 c-42 -267 -222 -723 -366 -931 l-46 -65 112 -3 c82 -2
113 1 119 10 19 30 99 292 123 398 14 63 34 185 45 270 20 153 38 400 30 400
-3 0 -10 -36 -17 -79z"/>
<path d="M30066 22508 c2 -35 16 -301 29 -593 14 -291 27 -539 28 -550 1 -11
26 239 55 555 29 316 55 592 58 613 l6 37 -91 0 -90 0 5 -62z"/>
<path d="M24916 22478 c-4 -13 -46 -1231 -42 -1235 1 -1 57 274 125 610 68
337 126 618 129 625 3 9 -21 12 -102 12 -77 0 -108 -4 -110 -12z"/>
<path d="M24576 22258 c-9 -352 -15 -764 -11 -753 4 12 225 963 225 970 0 3
-47 5 -104 5 l-104 0 -6 -222z"/>
<path d="M24254 22462 c-8 -5 -20 -193 -38 -591 -14 -321 -25 -586 -23 -587 4
-4 257 1154 257 1174 0 9 -25 12 -92 12 -51 0 -98 -4 -104 -8z"/>
<path d="M29879 22391 c-25 -31 -60 -74 -77 -97 l-32 -40 20 -490 c11 -269 21
-505 23 -524 1 -19 28 244 59 585 31 340 56 620 55 621 -1 1 -23 -24 -48 -55z"/>
<path d="M25236 22208 c-13 -234 -47 -1129 -44 -1165 2 -21 45 195 101 509
l98 547 -74 111 -75 111 -6 -113z"/>
<path d="M29526 21956 l-58 -70 6 -81 c3 -44 9 -277 12 -518 4 -241 8 -436 10
-435 5 6 95 1129 92 1152 -3 19 -12 12 -62 -48z"/>
<path d="M29196 21544 l-49 -59 7 -269 c3 -148 6 -326 6 -394 0 -69 2 -123 5
-121 6 7 87 857 83 882 -2 17 -11 10 -52 -39z"/>
<path d="M41102 21929 c3 -8 70 -257 149 -554 79 -297 145 -533 146 -525 4 22
-124 1070 -131 1077 -3 4 -43 8 -88 11 -67 4 -80 2 -76 -9z"/>
<path d="M41401 21898 c5 -18 84 -324 176 -680 92 -356 169 -646 171 -643 6 5
-179 1328 -187 1336 -3 4 -43 9 -88 13 l-82 6 10 -32z"/>
<path d="M41692 21898 c2 -7 65 -224 139 -483 77 -271 135 -457 136 -440 2 17
-21 233 -50 480 l-52 450 -89 3 c-69 2 -87 0 -84 -10z"/>
<path d="M42004 21829 c95 -306 231 -720 234 -711 3 10 -76 764 -81 768 -1 1
-41 5 -89 9 l-87 7 23 -73z"/>
<path d="M41971 20924 c0 -11 3 -14 6 -6 3 7 2 16 -1 19 -3 4 -6 -2 -5 -13z"/>
<path d="M41751 20544 c0 -11 3 -14 6 -6 3 7 2 16 -1 19 -3 4 -6 -2 -5 -13z"/>
<path d="M17780 22161 l-34 -6 -113 -590 c-61 -324 -111 -593 -110 -597 1 -4
89 259 196 585 107 325 196 598 199 605 4 13 -71 15 -138 3z"/>
<path d="M17477 21922 l-98 -98 -99 -504 c-55 -277 -99 -504 -97 -506 1 -2 91
268 199 599 108 331 196 602 195 604 -2 1 -47 -42 -100 -95z"/>
<path d="M12687 21790 c-37 -4 -71 -11 -76 -16 -9 -11 -334 -1204 -329 -1209
3 -3 514 1167 536 1226 4 10 -28 10 -131 -1z"/>
<path d="M12343 21761 c-34 -3 -64 -8 -66 -11 -7 -6 -249 -952 -245 -955 3 -3
429 917 444 958 7 19 -10 20 -133 8z"/>
<path d="M12008 21733 c-62 -4 -69 -10 -86 -68 -176 -620 -312 -1109 -309
-1111 3 -3 341 743 514 1134 l23 52 -43 -2 c-23 -1 -68 -3 -99 -5z"/>
<path d="M12887 21618 c-4 -12 -87 -313 -186 -668 -99 -355 -178 -646 -177
-647 1 -2 106 249 233 557 l231 560 -48 111 c-38 89 -49 106 -53 87z"/>
<path d="M17068 21512 l-75 -77 -107 -494 c-59 -271 -105 -495 -104 -497 2 -1
85 254 185 569 100 314 181 572 179 574 -1 1 -36 -32 -78 -75z"/>
<path d="M16638 21077 l-66 -62 -77 -360 c-90 -423 -90 -423 -68 -365 18 48
282 850 279 850 0 0 -31 -28 -68 -63z"/>
<path d="M45266 22005 c-3 -8 -13 -65 -23 -127 -24 -148 -24 -643 0 -783 l14
-90 2 80 c3 225 123 747 202 884 11 18 19 35 17 36 -2 1 -49 5 -104 9 -85 5
-103 3 -108 -9z"/>
<path d="M48180 22010 c-446 -42 -791 -299 -919 -684 -51 -154 -64 -257 -58
-446 8 -248 59 -440 183 -699 350 -727 1167 -1338 1984 -1481 156 -27 436 -38
563 -21 139 19 270 56 382 110 128 61 181 96 269 180 169 162 261 378 273 641
7 146 -6 256 -47 415 -135 525 -553 1086 -1104 1484 -283 204 -629 371 -929
447 -191 48 -430 70 -597 54z"/>
<path d="M45637 21983 c-14 -24 -58 -184 -76 -274 -35 -185 -44 -324 -38 -602
5 -268 23 -429 65 -607 l18 -75 7 160 c19 435 124 1079 221 1351 l14 42 -45 6
c-63 8 -161 8 -166 -1z"/>
<path d="M46007 21963 c-3 -4 -15 -39 -26 -78 -30 -95 -58 -279 -72 -465 -13
-168 -7 -489 10 -530 8 -21 10 -15 10 37 2 206 133 710 241 931 27 53 47 98
47 98 -9 6 -207 13 -210 7z"/>
<path d="M46366 21905 c-46 -108 -97 -328 -122 -520 -20 -148 -24 -575 -7
-660 10 -49 11 -47 12 44 4 304 142 823 286 1075 25 43 44 81 42 83 -2 2 -47
6 -100 10 l-96 6 -15 -38z"/>
<path d="M52485 19935 c49 -434 19 -1088 -64 -1412 l-19 -72 62 -6 c33 -3 84
-7 111 -8 l50 -2 22 87 c78 310 37 824 -101 1280 -19 62 -42 129 -51 148 l-16
35 6 -50z"/>
<path d="M51875 19544 c-1 -204 -10 -299 -46 -484 -37 -184 -123 -416 -190
-511 l-19 -27 83 -6 c45 -4 94 -9 108 -12 23 -4 28 0 41 33 21 52 54 191 70
293 20 132 17 546 -5 691 -38 241 -42 243 -42 23z"/>
<path d="M52211 19417 c-2 -311 -65 -639 -161 -844 -45 -96 -51 -88 91 -98
l96 -7 17 68 c57 241 45 677 -28 974 -14 54 -14 53 -15 -93z"/>
<path d="M52958 19320 c9 -277 -48 -638 -132 -831 l-33 -77 96 -7 c53 -3 103
-8 112 -11 48 -14 51 488 5 786 -14 91 -32 190 -39 220 -12 52 -13 48 -9 -80z"/>
<path d="M6546 21179 c-38 -5 -71 -10 -72 -12 -3 -2 -506 -795 -542 -852 -13
-22 -18 -33 -9 -25 12 12 547 681 685 858 19 23 28 41 20 41 -7 -1 -44 -6 -82
-10z"/>
<path d="M6218 21143 c-44 -4 -48 -7 -80 -56 -18 -29 -162 -252 -321 -497
-159 -245 -282 -438 -274 -430 22 22 777 980 777 985 0 5 -15 5 -102 -2z"/>
<path d="M5936 21108 c-38 -5 -71 -9 -72 -11 -4 -4 -479 -735 -531 -817 -30
-47 -44 -74 -31 -60 42 46 710 891 707 894 -2 1 -35 -2 -73 -6z"/>
<path d="M5613 21071 c-28 -4 -54 -9 -56 -11 -13 -15 -665 -1000 -662 -1000 2
0 54 64 116 143 238 300 636 804 663 840 32 41 35 40 -61 28z"/>
<path d="M7221 20911 c-173 -247 -732 -1038 -1019 -1441 -171 -239 -309 -436
-307 -438 4 -4 1027 108 1054 116 23 7 26 17 47 137 125 725 165 957 230 1314
41 228 73 415 72 416 -2 2 -36 -45 -77 -104z"/>
<path d="M6620 18805 l-265 -53 276 -1 277 -1 6 31 c11 56 7 79 -11 78 -10 -1
-137 -25 -283 -54z"/>
<path d="M6390 18506 c-255 -44 -455 -82 -445 -84 37 -5 906 36 913 43 4 3 12
33 18 66 9 52 9 59 -5 58 -9 -1 -225 -38 -481 -83z"/>
<path d="M6248 18212 c-312 -53 -566 -98 -564 -99 2 -2 239 8 526 22 288 14
542 25 565 25 l43 0 6 58 c4 31 9 65 12 75 3 10 0 17 -8 16 -7 0 -268 -44
-580 -97z"/>
<path d="M53146 21623 c43 -68 221 -297 309 -398 236 -269 552 -582 751 -745
l79 -65 -75 83 c-333 368 -678 798 -845 1054 l-50 76 -65 6 c-36 4 -78 9 -93
12 l-29 6 18 -29z"/>
<path d="M53530 21602 c0 -9 155 -197 256 -313 157 -178 429 -463 560 -586
123 -115 194 -175 163 -137 -9 10 -74 89 -144 174 -197 238 -602 765 -643 836
-6 11 -192 36 -192 26z"/>
<path d="M53936 21548 c4 -7 31 -44 59 -83 200 -273 645 -715 893 -889 l57
-40 -90 95 c-190 200 -545 630 -680 824 l-64 92 -68 6 c-100 10 -115 9 -107
-5z"/>
<path d="M54370 21459 c125 -146 463 -468 660 -629 61 -49 58 -45 -56 86 -88
100 -318 386 -408 506 -62 83 -61 82 -181 94 l-69 7 54 -64z"/>
<path d="M27825 14358 c-18 -136 -25 -403 -25 -963 l0 -631 48 -59 c53 -66
109 -112 227 -185 l80 -50 16 82 c13 63 20 227 33 688 9 333 16 662 16 732 l0
127 -157 128 c-157 128 -216 173 -226 173 -3 0 -8 -19 -12 -42z"/>
<path d="M37535 14388 c-16 -50 -25 -398 -25 -965 l0 -660 29 -39 c47 -63 110
-118 216 -187 66 -43 102 -61 106 -54 4 7 14 55 22 107 12 68 19 226 27 555 6
253 14 570 17 705 l6 245 -174 141 c-191 155 -217 172 -224 152z"/>
<path d="M33452 14480 c-114 -70 -216 -411 -248 -827 l-7 -93 157 0 156 0 0
470 c0 369 -3 470 -12 470 -7 0 -28 -9 -46 -20z"/>
<path d="M29742 14440 c-9 -15 -12 -160 -12 -620 0 -596 0 -600 20 -600 63 0
147 72 198 169 40 74 79 201 97 314 43 264 -18 558 -144 695 -54 58 -135 80
-159 42z"/>
<path d="M26031 14392 c-12 -22 -28 -329 -41 -772 -14 -498 -15 -490 13 -490
207 2 406 546 331 908 -31 149 -114 306 -188 351 -42 26 -102 28 -115 3z"/>
</g>
</svg>
